<mxfile host="65bd71144e">
    <diagram id="ZbJXZ4Jg9Sgd_XPEj4xT" name="Page-1">
        <mxGraphModel dx="2008" dy="884" grid="1" gridSize="10" guides="1" tooltips="1" connect="1" arrows="1" fold="1" page="1" pageScale="1" pageWidth="2339" pageHeight="3300" math="0" shadow="0">
            <root>
                <mxCell id="0"/>
                <mxCell id="1" parent="0"/>
                <mxCell id="2" value="News" style="swimlane;fillColor=#d5e8d4;strokeColor=#82b366;startSize=23;fontFamily=Helvetica;" vertex="1" parent="1">
                    <mxGeometry x="490" y="260" width="220" height="280" as="geometry"/>
                </mxCell>
                <mxCell id="7" value="ID" style="text;html=1;align=center;verticalAlign=middle;resizable=0;points=[];autosize=1;strokeColor=#82b366;fillColor=#d5e8d4;fontSize=11;fontFamily=Verdana;rounded=1;shadow=0;glass=0;labelBackgroundColor=none;labelBorderColor=none;sketch=0;strokeWidth=1;spacingTop=0;" vertex="1" parent="2">
                    <mxGeometry x="10" y="35" width="40" height="20" as="geometry"/>
                </mxCell>
                <mxCell id="15" value="publisher_id : FOREIGN KEY" style="text;html=1;align=center;verticalAlign=middle;resizable=0;points=[];autosize=1;strokeColor=#82b366;fillColor=#d5e8d4;fontSize=11;fontFamily=Verdana;rounded=1;shadow=0;glass=0;labelBackgroundColor=none;labelBorderColor=none;sketch=0;strokeWidth=1;spacingTop=0;" vertex="1" parent="2">
                    <mxGeometry x="10" y="70" width="180" height="20" as="geometry"/>
                </mxCell>
                <mxCell id="24" value="title: TEXT" style="text;html=1;align=center;verticalAlign=middle;resizable=0;points=[];autosize=1;strokeColor=#82b366;fillColor=#d5e8d4;fontSize=11;fontFamily=Verdana;rounded=1;shadow=0;glass=0;labelBackgroundColor=none;labelBorderColor=none;sketch=0;strokeWidth=1;spacingTop=0;" vertex="1" parent="2">
                    <mxGeometry x="10" y="100" width="80" height="20" as="geometry"/>
                </mxCell>
                <mxCell id="25" value="author: VARCHAR" style="text;html=1;align=center;verticalAlign=middle;resizable=0;points=[];autosize=1;strokeColor=#82b366;fillColor=#d5e8d4;fontSize=11;fontFamily=Verdana;rounded=1;shadow=0;glass=0;labelBackgroundColor=none;labelBorderColor=none;sketch=0;strokeWidth=1;spacingTop=0;" vertex="1" parent="2">
                    <mxGeometry x="10" y="130" width="120" height="20" as="geometry"/>
                </mxCell>
                <mxCell id="26" value="article_url: VARCHAR" style="text;html=1;align=center;verticalAlign=middle;resizable=0;points=[];autosize=1;strokeColor=#82b366;fillColor=#d5e8d4;fontSize=11;fontFamily=Verdana;rounded=1;shadow=0;glass=0;labelBackgroundColor=none;labelBorderColor=none;sketch=0;strokeWidth=1;spacingTop=0;" vertex="1" parent="2">
                    <mxGeometry x="10" y="160" width="140" height="20" as="geometry"/>
                </mxCell>
                <mxCell id="27" value="date_published : date" style="text;html=1;align=center;verticalAlign=middle;resizable=0;points=[];autosize=1;strokeColor=#82b366;fillColor=#d5e8d4;fontSize=11;fontFamily=Verdana;rounded=1;shadow=0;glass=0;labelBackgroundColor=none;labelBorderColor=none;sketch=0;strokeWidth=1;spacingTop=0;" vertex="1" parent="2">
                    <mxGeometry x="10" y="190" width="140" height="20" as="geometry"/>
                </mxCell>
                <mxCell id="28" value="image_url : VARCHAR" style="text;html=1;align=center;verticalAlign=middle;resizable=0;points=[];autosize=1;strokeColor=#82b366;fillColor=#d5e8d4;fontSize=11;fontFamily=Verdana;rounded=1;shadow=0;glass=0;labelBackgroundColor=none;labelBorderColor=none;sketch=0;strokeWidth=1;spacingTop=0;" vertex="1" parent="2">
                    <mxGeometry x="10" y="220" width="150" height="20" as="geometry"/>
                </mxCell>
                <mxCell id="3" value="Company" style="swimlane;fillColor=#dae8fc;strokeColor=#6c8ebf;" vertex="1" parent="1">
                    <mxGeometry x="1110" y="230" width="340" height="290" as="geometry"/>
                </mxCell>
                <mxCell id="29" value="ID" style="text;html=1;align=center;verticalAlign=middle;resizable=0;points=[];autosize=1;strokeColor=#6c8ebf;fillColor=#dae8fc;fontSize=11;fontFamily=Verdana;rounded=1;shadow=0;glass=0;labelBackgroundColor=none;labelBorderColor=none;sketch=0;strokeWidth=1;spacingTop=0;" vertex="1" parent="3">
                    <mxGeometry x="10" y="30" width="40" height="20" as="geometry"/>
                </mxCell>
                <mxCell id="30" value="code : VARCHAR(10)" style="text;html=1;align=center;verticalAlign=middle;resizable=0;points=[];autosize=1;strokeColor=#6c8ebf;fillColor=#dae8fc;fontSize=11;fontFamily=Verdana;rounded=1;shadow=0;glass=0;labelBackgroundColor=none;labelBorderColor=none;sketch=0;strokeWidth=1;spacingTop=0;" vertex="1" parent="3">
                    <mxGeometry x="10" y="60" width="140" height="20" as="geometry"/>
                </mxCell>
                <mxCell id="31" value="name : VARCHAR()" style="text;html=1;align=center;verticalAlign=middle;resizable=0;points=[];autosize=1;strokeColor=#6c8ebf;fillColor=#dae8fc;fontSize=11;fontFamily=Verdana;rounded=1;shadow=0;glass=0;labelBackgroundColor=none;labelBorderColor=none;sketch=0;strokeWidth=1;spacingTop=0;" vertex="1" parent="3">
                    <mxGeometry x="10" y="90" width="130" height="20" as="geometry"/>
                </mxCell>
                <mxCell id="32" value="locate : VARCHAR()" style="text;html=1;align=center;verticalAlign=middle;resizable=0;points=[];autosize=1;strokeColor=#6c8ebf;fillColor=#dae8fc;fontSize=11;fontFamily=Verdana;rounded=1;shadow=0;glass=0;labelBackgroundColor=none;labelBorderColor=none;sketch=0;strokeWidth=1;spacingTop=0;" vertex="1" parent="3">
                    <mxGeometry x="10" y="120" width="130" height="20" as="geometry"/>
                </mxCell>
                <mxCell id="38" value="currency_name: VARCHAR()" style="text;html=1;align=center;verticalAlign=middle;resizable=0;points=[];autosize=1;strokeColor=#6c8ebf;fillColor=#dae8fc;fontSize=11;fontFamily=Verdana;rounded=1;shadow=0;glass=0;labelBackgroundColor=none;labelBorderColor=none;sketch=0;strokeWidth=1;spacingTop=0;" vertex="1" parent="3">
                    <mxGeometry x="10" y="145" width="180" height="20" as="geometry"/>
                </mxCell>
                <mxCell id="39" value="address : VARCHAR()" style="text;html=1;align=center;verticalAlign=middle;resizable=0;points=[];autosize=1;strokeColor=#6c8ebf;fillColor=#dae8fc;fontSize=11;fontFamily=Verdana;rounded=1;shadow=0;glass=0;labelBackgroundColor=none;labelBorderColor=none;sketch=0;strokeWidth=1;spacingTop=0;" vertex="1" parent="3">
                    <mxGeometry x="10" y="170" width="140" height="20" as="geometry"/>
                </mxCell>
                <mxCell id="40" value="description : TEXT" style="text;html=1;align=center;verticalAlign=middle;resizable=0;points=[];autosize=1;strokeColor=#6c8ebf;fillColor=#dae8fc;fontSize=11;fontFamily=Verdana;rounded=1;shadow=0;glass=0;labelBackgroundColor=none;labelBorderColor=none;sketch=0;strokeWidth=1;spacingTop=0;" vertex="1" parent="3">
                    <mxGeometry x="10" y="200" width="120" height="20" as="geometry"/>
                </mxCell>
                <mxCell id="42" value="url : VARCHAR" style="text;html=1;align=center;verticalAlign=middle;resizable=0;points=[];autosize=1;strokeColor=#6c8ebf;fillColor=#dae8fc;fontSize=11;fontFamily=Verdana;rounded=1;shadow=0;glass=0;labelBackgroundColor=none;labelBorderColor=none;sketch=0;strokeWidth=1;spacingTop=0;" vertex="1" parent="3">
                    <mxGeometry x="10" y="230" width="100" height="20" as="geometry"/>
                </mxCell>
                <mxCell id="43" value="number_employees : INTEGER" style="text;html=1;align=center;verticalAlign=middle;resizable=0;points=[];autosize=1;strokeColor=#6c8ebf;fillColor=#dae8fc;fontSize=11;fontFamily=Verdana;rounded=1;shadow=0;glass=0;labelBackgroundColor=none;labelBorderColor=none;sketch=0;strokeWidth=1;spacingTop=0;" vertex="1" parent="3">
                    <mxGeometry x="10" y="260" width="190" height="20" as="geometry"/>
                </mxCell>
                <mxCell id="5" value="NewsCompany" style="swimlane;fillColor=#fff2cc;strokeColor=#d6b656;" vertex="1" parent="1">
                    <mxGeometry x="800" y="290" width="210" height="155" as="geometry">
                        <mxRectangle x="790" y="250" width="190" height="300" as="alternateBounds"/>
                    </mxGeometry>
                </mxCell>
                <mxCell id="52" value="ID" style="text;html=1;align=center;verticalAlign=middle;resizable=0;points=[];autosize=1;strokeColor=#d6b656;fillColor=#fff2cc;fontSize=11;fontFamily=Verdana;rounded=1;shadow=0;glass=0;labelBackgroundColor=none;labelBorderColor=none;sketch=0;strokeWidth=1;spacingTop=0;arcSize=42;" vertex="1" parent="5">
                    <mxGeometry x="10" y="40" width="40" height="20" as="geometry"/>
                </mxCell>
                <mxCell id="56" value="news_id: FOREIGN KEY" style="text;html=1;align=center;verticalAlign=middle;resizable=0;points=[];autosize=1;strokeColor=#d6b656;fillColor=#fff2cc;fontSize=11;fontFamily=Verdana;rounded=1;shadow=0;glass=0;labelBackgroundColor=none;labelBorderColor=none;sketch=0;strokeWidth=1;spacingTop=0;arcSize=42;" vertex="1" parent="5">
                    <mxGeometry x="10" y="75" width="150" height="20" as="geometry"/>
                </mxCell>
                <mxCell id="57" value="company_id: FOREIGN KEY" style="text;html=1;align=center;verticalAlign=middle;resizable=0;points=[];autosize=1;strokeColor=#d6b656;fillColor=#fff2cc;fontSize=11;fontFamily=Verdana;rounded=1;shadow=0;glass=0;labelBackgroundColor=none;labelBorderColor=none;sketch=0;strokeWidth=1;spacingTop=0;arcSize=42;" vertex="1" parent="5">
                    <mxGeometry x="10" y="115" width="180" height="20" as="geometry"/>
                </mxCell>
                <mxCell id="12" value="Publisher" style="swimlane;fillColor=#60a917;strokeColor=#2D7600;startSize=23;fontFamily=Helvetica;fontColor=#ffffff;" vertex="1" parent="1">
                    <mxGeometry x="250" y="290" width="190" height="220" as="geometry"/>
                </mxCell>
                <mxCell id="17" value="ID" style="text;html=1;align=center;verticalAlign=middle;resizable=0;points=[];autosize=1;strokeColor=#2D7600;fillColor=#60a917;fontSize=11;fontFamily=Verdana;rounded=1;shadow=0;glass=0;labelBackgroundColor=none;labelBorderColor=none;sketch=0;strokeWidth=1;spacingTop=0;fontColor=#ffffff;" vertex="1" parent="12">
                    <mxGeometry x="10" y="40" width="40" height="20" as="geometry"/>
                </mxCell>
                <mxCell id="19" value="name : VARCHAR" style="text;html=1;align=center;verticalAlign=middle;resizable=0;points=[];autosize=1;strokeColor=#2D7600;fillColor=#60a917;fontSize=11;fontFamily=Verdana;rounded=1;shadow=0;glass=0;labelBackgroundColor=none;labelBorderColor=none;sketch=0;strokeWidth=1;spacingTop=0;fontColor=#ffffff;" vertex="1" parent="12">
                    <mxGeometry x="10" y="70" width="120" height="20" as="geometry"/>
                </mxCell>
                <mxCell id="21" value="url : VARCHAR" style="text;html=1;align=center;verticalAlign=middle;resizable=0;points=[];autosize=1;strokeColor=#2D7600;fillColor=#60a917;fontSize=11;fontFamily=Verdana;rounded=1;shadow=0;glass=0;labelBackgroundColor=none;labelBorderColor=none;sketch=0;strokeWidth=1;spacingTop=0;fontColor=#ffffff;" vertex="1" parent="12">
                    <mxGeometry x="10" y="100" width="100" height="20" as="geometry"/>
                </mxCell>
                <mxCell id="22" value="logo_url : VARCHAR" style="text;html=1;align=center;verticalAlign=middle;resizable=0;points=[];autosize=1;strokeColor=#2D7600;fillColor=#60a917;fontSize=11;fontFamily=Verdana;rounded=1;shadow=0;glass=0;labelBackgroundColor=none;labelBorderColor=none;sketch=0;strokeWidth=1;spacingTop=0;fontColor=#ffffff;" vertex="1" parent="12">
                    <mxGeometry x="10" y="130" width="130" height="20" as="geometry"/>
                </mxCell>
                <mxCell id="23" value="favicon_url : VARCHAR" style="text;html=1;align=center;verticalAlign=middle;resizable=0;points=[];autosize=1;strokeColor=#2D7600;fillColor=#60a917;fontSize=11;fontFamily=Verdana;rounded=1;shadow=0;glass=0;labelBackgroundColor=none;labelBorderColor=none;sketch=0;strokeWidth=1;spacingTop=0;fontColor=#ffffff;" vertex="1" parent="12">
                    <mxGeometry x="10" y="160" width="150" height="20" as="geometry"/>
                </mxCell>
                <mxCell id="18" style="edgeStyle=none;html=1;fontFamily=Helvetica;fontSize=11;" edge="1" parent="1" source="15" target="17">
                    <mxGeometry relative="1" as="geometry"/>
                </mxCell>
                <mxCell id="58" style="edgeStyle=none;html=1;fontFamily=Helvetica;fontSize=11;" edge="1" parent="1" source="29" target="57">
                    <mxGeometry relative="1" as="geometry">
                        <Array as="points">
                            <mxPoint x="1080" y="270"/>
                            <mxPoint x="1080" y="415"/>
                        </Array>
                    </mxGeometry>
                </mxCell>
                <mxCell id="61" style="edgeStyle=none;html=1;entryX=-0.021;entryY=0.452;entryDx=0;entryDy=0;entryPerimeter=0;fontFamily=Helvetica;fontSize=11;" edge="1" parent="1" source="7" target="56">
                    <mxGeometry relative="1" as="geometry">
                        <Array as="points">
                            <mxPoint x="760" y="305"/>
                            <mxPoint x="760" y="330"/>
                            <mxPoint x="760" y="374"/>
                        </Array>
                    </mxGeometry>
                </mxCell>
            </root>
        </mxGraphModel>
    </diagram>
</mxfile>